<?xml version="1.0" encoding="utf-8"?>
<!-- created with bpmn-js / http://bpmn.io -->
<!DOCTYPE svg PUBLIC "-//W3C//DTD SVG 1.1//EN" "http://www.w3.org/Graphics/SVG/1.1/DTD/svg11.dtd">
<svg xmlns="http://www.w3.org/2000/svg" xmlns:xlink="http://www.w3.org/1999/xlink" width="932" height="402" viewBox="154 74 932 402" version="1.1">
  <defs>
    <marker id="sequenceflow-end-white-black-bv9d6y9s8fu3oogjvkkx6yy6x" viewBox="0 0 20 20" refX="11" refY="10" markerWidth="10" markerHeight="10" orient="auto">
      <path d="M 1 5 L 11 10 L 1 15 Z" style="fill: black; stroke-width: 1px; stroke-linecap: round; stroke-dasharray: 10000, 1; stroke: black;"/>
    </marker>
  </defs>
  <g class="djs-group">
    <g class="djs-element djs-shape" data-element-id="Participant_1yx6w7r" style="display: block;" transform="matrix(1 0 0 1 160 80)">
      <g class="djs-visual">
        <rect x="0" y="0" width="920" height="390" rx="0" ry="0" style="stroke: black; stroke-width: 2px; fill: white; fill-opacity: 0.95;"/>
        <polyline points="30,0 30,390 " style="fill: none; stroke: black; stroke-width: 2px;"/>
        <text lineHeight="1.2" class="djs-label" style="font-family: Arial, sans-serif; font-size: 12px; font-weight: normal; fill: black;" transform="matrix(-1.83697e-16 -1 1 -1.83697e-16 0 390)">
          <tspan x="106.6171875" y="18.6">what problem does this tool solve</tspan>
        </text>
      </g>
      <rect x="-6" y="-6" width="932" height="402" class="djs-outline" style="fill: none;"/>
      <rect class="djs-hit djs-hit-click-stroke" x="0" y="0" width="920" height="390" style="fill: none; stroke-opacity: 0; stroke: white; stroke-width: 15px;"/>
      <rect class="djs-hit djs-hit-all" x="0" y="0" width="30" height="390" style="fill: none; stroke-opacity: 0; stroke: white; stroke-width: 15px;"/>
    </g>
    <g class="djs-children">
      <g class="djs-group">
        <g class="djs-element djs-shape" data-element-id="TextAnnotation_0ddrxwc" style="display: block;" transform="matrix(1 0 0 1 950 130)">
          <g class="djs-visual">
            <rect x="0" y="0" width="99.99656781987919" height="97.74848984074684" rx="0" ry="0" style="stroke: none; stroke-width: 2px; fill: none;"/>
            <path d="m 0, 0 m 10,0 l -10,0 l 0,97.74848984074684 l 10,0" style="fill: none; stroke-width: 2px; stroke: black;"/>
            <text lineHeight="1.2" class="djs-label" style="font-family: Arial, sans-serif; font-size: 12px; font-weight: normal; fill: black;">
              <tspan x="5" y="15.799999999999999">you must grant </tspan>
              <tspan x="5" y="30.199999999999996">oAuth </tspan>
              <tspan x="5" y="44.599999999999994">User.Read </tspan>
              <tspan x="5" y="58.99999999999999">consent to your </tspan>
              <tspan x="5" y="73.39999999999999">Azure AD tenant</tspan>
            </text>
          </g>
          <rect class="djs-hit djs-hit-all" x="0" y="0" width="99.99656781987919" height="97.74848984074684" style="fill: none; stroke-opacity: 0; stroke: white; stroke-width: 15px;"/>
          <rect x="-6" y="-6" width="111.99656781987919" height="109.74848984074684" class="djs-outline" style="fill: none;"/>
        </g>
      </g>
      <g class="djs-group">
        <g class="djs-element djs-shape" data-element-id="TextAnnotation_1mcj2po" style="display: block;" transform="matrix(1 0 0 1 950 300)">
          <g class="djs-visual">
            <rect x="0" y="0" width="99.99656781987919" height="83.47062053816585" rx="0" ry="0" style="stroke: none; stroke-width: 2px; fill: none;"/>
            <path d="m 0, 0 m 10,0 l -10,0 l 0,83.47062053816585 l 10,0" style="fill: none; stroke-width: 2px; stroke: black;"/>
            <text lineHeight="1.2" class="djs-label" style="font-family: Arial, sans-serif; font-size: 12px; font-weight: normal; fill: black;">
              <tspan x="5" y="15.799999999999999">you need </tspan>
              <tspan x="5" y="30.199999999999996">deploy to Azure</tspan>
              <tspan x="5" y="44.599999999999994">App Service </tspan>
              <tspan x="5" y="58.99999999999999">RBAC </tspan>
              <tspan x="5" y="73.39999999999999">permissions</tspan>
            </text>
          </g>
          <rect class="djs-hit djs-hit-all" x="0" y="0" width="99.99656781987919" height="83.47062053816585" style="fill: none; stroke-opacity: 0; stroke: white; stroke-width: 15px;"/>
          <rect x="-6" y="-6" width="111.99656781987919" height="95.47062053816585" class="djs-outline" style="fill: none;"/>
        </g>
      </g>
      <g class="djs-group">
        <g class="djs-element djs-shape" data-element-id="TextAnnotation_1fv83lq" style="display: block;" transform="matrix(1 0 0 1 740 110)">
          <g class="djs-visual">
            <rect x="0" y="0" width="99.99656781987919" height="83.47062053816585" rx="0" ry="0" style="stroke: none; stroke-width: 2px; fill: none;"/>
            <path d="m 0, 0 m 10,0 l -10,0 l 0,83.47062053816585 l 10,0" style="fill: none; stroke-width: 2px; stroke: black;"/>
            <text lineHeight="1.2" class="djs-label" style="font-family: Arial, sans-serif; font-size: 12px; font-weight: normal; fill: black;">
              <tspan x="5" y="15.799999999999999">at minimum you </tspan>
              <tspan x="5" y="30.199999999999996">must have </tspan>
              <tspan x="5" y="44.599999999999994">Azure Storage </tspan>
              <tspan x="5" y="58.99999999999999">Account Reader</tspan>
              <tspan x="5" y="73.39999999999999">RBAC Role</tspan>
            </text>
          </g>
          <rect class="djs-hit djs-hit-all" x="0" y="0" width="99.99656781987919" height="83.47062053816585" style="fill: none; stroke-opacity: 0; stroke: white; stroke-width: 15px;"/>
          <rect x="-6" y="-6" width="111.99656781987919" height="95.47062053816585" class="djs-outline" style="fill: none;"/>
        </g>
      </g>
      <g class="djs-group">
        <g class="djs-element djs-connection" data-element-id="Flow_0seq4t5" style="display: block;">
          <g class="djs-visual">
            <path d="m  262,260L314,260 " style="fill: none; stroke-width: 2px; stroke: black; stroke-linejoin: round; marker-end: url('#sequenceflow-end-white-black-bv9d6y9s8fu3oogjvkkx6yy6x');"/>
          </g>
          <polyline points="262,260 314,260 " class="djs-hit djs-hit-stroke" style="fill: none; stroke-opacity: 0; stroke: white; stroke-width: 15px;"/>
          <rect x="256" y="254" width="64" height="12" class="djs-outline" style="fill: none;"/>
        </g>
      </g>
      <g class="djs-group">
        <g class="djs-element djs-connection" data-element-id="Flow_1285wsq" style="display: block;">
          <g class="djs-visual">
            <path d="m  414,260L474,260 " style="fill: none; stroke-width: 2px; stroke: black; stroke-linejoin: round; marker-end: url('#sequenceflow-end-white-black-bv9d6y9s8fu3oogjvkkx6yy6x');"/>
          </g>
          <polyline points="414,260 474,260 " class="djs-hit djs-hit-stroke" style="fill: none; stroke-opacity: 0; stroke: white; stroke-width: 15px;"/>
          <rect x="408" y="254" width="72" height="12" class="djs-outline" style="fill: none;"/>
        </g>
      </g>
      <g class="djs-group">
        <g class="djs-element djs-connection" data-element-id="Flow_0vpfpwq" style="display: block;">
          <g class="djs-visual">
            <path d="m  574,260L639,260 " style="fill: none; stroke-width: 2px; stroke: black; stroke-linejoin: round; marker-end: url('#sequenceflow-end-white-black-bv9d6y9s8fu3oogjvkkx6yy6x');"/>
          </g>
          <polyline points="574,260 639,260 " class="djs-hit djs-hit-stroke" style="fill: none; stroke-opacity: 0; stroke: white; stroke-width: 15px;"/>
          <rect x="568" y="254" width="77" height="12" class="djs-outline" style="fill: none;"/>
        </g>
      </g>
      <g class="djs-group">
        <g class="djs-element djs-connection" data-element-id="Flow_04flslc" style="display: block;">
          <g class="djs-visual">
            <path d="m  689,260L820,260 " style="fill: none; stroke-width: 2px; stroke: black; stroke-linejoin: round; marker-end: url('#sequenceflow-end-white-black-bv9d6y9s8fu3oogjvkkx6yy6x');"/>
          </g>
          <polyline points="689,260 820,260 " class="djs-hit djs-hit-stroke" style="fill: none; stroke-opacity: 0; stroke: white; stroke-width: 15px;"/>
          <rect x="683" y="254" width="143" height="12" class="djs-outline" style="fill: none;"/>
        </g>
      </g>
      <g class="djs-group">
        <g class="djs-element djs-connection" data-element-id="Flow_0870m3k" style="display: block;">
          <g class="djs-visual">
            <path d="m  664,285L664,390 L820,390 " style="fill: none; stroke-width: 2px; stroke: black; stroke-linejoin: round; marker-end: url('#sequenceflow-end-white-black-bv9d6y9s8fu3oogjvkkx6yy6x');"/>
          </g>
          <polyline points="664,285 664,390 820,390 " class="djs-hit djs-hit-stroke" style="fill: none; stroke-opacity: 0; stroke: white; stroke-width: 15px;"/>
          <rect x="658" y="279" width="168" height="117" class="djs-outline" style="fill: none;"/>
        </g>
      </g>
      <g class="djs-group">
        <g class="djs-element djs-shape" data-element-id="StartEvent_0k8t48p" style="display: block;" transform="matrix(1 0 0 1 226 242)">
          <g class="djs-visual">
            <circle cx="18" cy="18" r="18" style="stroke: black; stroke-width: 2px; fill: white; fill-opacity: 0.95;"/>
          </g>
          <rect class="djs-hit djs-hit-all" x="0" y="0" width="36" height="36" style="fill: none; stroke-opacity: 0; stroke: white; stroke-width: 15px;"/>
          <rect x="-6" y="-6" width="48" height="48" class="djs-outline" style="fill: none;"/>
        </g>
      </g>
      <g class="djs-group">
        <g class="djs-element djs-shape" data-element-id="Activity_1qi8m3w" style="display: block;" transform="matrix(1 0 0 1 314 220)">
          <g class="djs-visual">
            <rect x="0" y="0" width="100" height="80" rx="10" ry="10" style="stroke: black; stroke-width: 2px; fill: white; fill-opacity: 0.95;"/>
            <text lineHeight="1.2" class="djs-label" style="font-family: Arial, sans-serif; font-size: 12px; font-weight: normal; fill: black;">
              <tspan x="31.8125" y="22">enable </tspan>
              <tspan x="19.9765625" y="36.4">diagnostics </tspan>
              <tspan x="23.8125" y="50.8">logging to </tspan>
              <tspan x="6.96875" y="65.19999999999999">storage account</tspan>
            </text>
          </g>
          <rect class="djs-hit djs-hit-all" x="0" y="0" width="100" height="80" style="fill: none; stroke-opacity: 0; stroke: white; stroke-width: 15px;"/>
          <rect x="-6" y="-6" width="112" height="92" class="djs-outline" style="fill: none;"/>
        </g>
      </g>
      <g class="djs-group">

        <g class="djs-element djs-shape" data-element-id="Activity_02zfof1" style="display: block;" transform="matrix(1 0 0 1 474 220)">
          <g class="djs-visual">
            <rect x="0" y="0" width="100" height="80" rx="10" ry="10" style="stroke: black; stroke-width: 2px; fill: white; fill-opacity: 0.95;"/>

            <text lineHeight="1.2" class="djs-label" style="font-family: Arial, sans-serif; font-size: 12px; font-weight: normal; fill: black;">
              <tspan x="6.96875" y="29.200000000000003">storage account</tspan>
              <tspan x="10.640625" y="43.6">leaks.0$$ from </tspan>
              <tspan x="14.890625" y="58">WADMetrics*</tspan>
            </text>

          </g>
          <rect class="djs-hit djs-hit-all" x="0" y="0" width="100" height="80" style="fill: none; stroke-opacity: 0; stroke: white; stroke-width: 15px;"/>
          <rect x="-6" y="-6" width="112" height="92" class="djs-outline" style="fill: none;"/>
        </g>

      </g>
      <g class="djs-group">
        <g class="djs-element djs-shape" data-element-id="Gateway_1oriwa5" style="display: block;" transform="matrix(1 0 0 1 639 235)">
          <g class="djs-visual">
            <polygon points="25,0 50,25 25,50 0,25" style="stroke: black; stroke-width: 2px; fill: white; fill-opacity: 0.95;"/>
            <path d="m 16,15 7.42857142857143,9.714285714285715 -7.42857142857143,9.714285714285715 3.428571428571429,0 5.714285714285715,-7.464228571428572 5.714285714285715,7.464228571428572 3.428571428571429,0 -7.42857142857143,-9.714285714285715 7.42857142857143,-9.714285714285715 -3.428571428571429,0 -5.714285714285715,7.464228571428572 -5.714285714285715,-7.464228571428572 -3.428571428571429,0 z" style="fill: black; stroke-width: 1px; stroke: black;"/>
          </g>
          <rect class="djs-hit djs-hit-all" x="0" y="0" width="50" height="50" style="fill: none; stroke-opacity: 0; stroke: white; stroke-width: 15px;"/>
          <rect x="-6" y="-6" width="62" height="62" class="djs-outline" style="fill: none;"/>
        </g>
      </g>
      <g class="djs-group">
        <g class="djs-element djs-shape" data-element-id="Activity_0xxcoyf" style="display: block;" transform="matrix(1 0 0 1 820 220)">
          <g class="djs-visual">
            <rect x="0" y="0" width="100" height="80" rx="10" ry="10" style="stroke: black; stroke-width: 2px; fill: white; fill-opacity: 0.95;"/>
            <text lineHeight="1.2" class="djs-label" style="font-family: Arial, sans-serif; font-size: 12px; font-weight: normal; fill: black;">
              <tspan x="14.140625" y="29.200000000000003">login and use </tspan>
              <tspan x="25.3203125" y="43.6">the demo </tspan>
              <tspan x="24.1484375" y="58">appliance</tspan>
            </text>
          </g>
          <rect class="djs-hit djs-hit-all" x="0" y="0" width="100" height="80" style="fill: none; stroke-opacity: 0; stroke: white; stroke-width: 15px;"/>
          <rect x="-6" y="-6" width="112" height="92" class="djs-outline" style="fill: none;"/>
        </g>
      </g>
      <g class="djs-group">
        <g class="djs-element djs-shape" data-element-id="Activity_13bjfok" style="display: block;" transform="matrix(1 0 0 1 820 350)">
          <g class="djs-visual">
            <rect x="0" y="0" width="100" height="80" rx="10" ry="10" style="stroke: black; stroke-width: 2px; fill: white; fill-opacity: 0.95;"/>
            <text lineHeight="1.2" class="djs-label" style="font-family: Arial, sans-serif; font-size: 12px; font-weight: normal; fill: black;">
              <tspan x="19.8203125" y="14.799999999999999">click on the </tspan>
              <tspan x="19.4765625" y="29.199999999999996">appropriate </tspan>
              <tspan x="8.8046875" y="43.599999999999994">deploy to azure </tspan>
              <tspan x="16.4765625" y="57.99999999999999">button at the </tspan>
              <tspan x="19.8125" y="72.39999999999999">github repo</tspan>
            </text>
          </g>
          <rect class="djs-hit djs-hit-all" x="0" y="0" width="100" height="80" style="fill: none; stroke-opacity: 0; stroke: white; stroke-width: 15px;"/>
          <rect x="-6" y="-6" width="112" height="92" class="djs-outline" style="fill: none;"/>
        </g>
      </g>
      <g class="djs-group">
        <g class="djs-element djs-connection" data-element-id="Association_11osuzx" style="display: block;">
          <g class="djs-visual">
            <polyline points="914,221 950,189 " style="fill: none; stroke: black; stroke-width: 2px; stroke-dasharray: 0.5, 5; stroke-linecap: round; stroke-linejoin: round;"/>
          </g>
          <polyline points="914,221 950,189 " class="djs-hit djs-hit-stroke" style="fill: none; stroke-opacity: 0; stroke: white; stroke-width: 15px;"/>
          <rect x="908" y="183" width="48" height="44" class="djs-outline" style="fill: none;"/>
        </g>
      </g>
      <g class="djs-group">
        <g class="djs-element djs-connection" data-element-id="Association_1azzjd4" style="display: block;">
          <g class="djs-visual">
            <polyline points="920,361 950,344 " style="fill: none; stroke: black; stroke-width: 2px; stroke-dasharray: 0.5, 5; stroke-linecap: round; stroke-linejoin: round;"/>
          </g>
          <polyline points="920,361 950,344 " class="djs-hit djs-hit-stroke" style="fill: none; stroke-opacity: 0; stroke: white; stroke-width: 15px;"/>
          <rect x="914" y="338" width="42" height="29" class="djs-outline" style="fill: none;"/>
        </g>
      </g>
      <g class="djs-group">
        <g class="djs-element djs-connection" data-element-id="Association_0he34iw" style="display: block;">
          <g class="djs-visual">
            <polyline points="676,247 740,179 " style="fill: none; stroke: black; stroke-width: 2px; stroke-dasharray: 0.5, 5; stroke-linecap: round; stroke-linejoin: round;"/>
          </g>
          <polyline points="676,247 740,179 " class="djs-hit djs-hit-stroke" style="fill: none; stroke-opacity: 0; stroke: white; stroke-width: 15px;"/>
          <rect x="670" y="173" width="76" height="80" class="djs-outline" style="fill: none;"/>
        </g>
      </g>
    </g>
  </g>
  <g class="djs-group">
    <g class="djs-element djs-shape" data-element-id="StartEvent_0k8t48p_label" style="display: block;" transform="matrix(1 0 0 1 221 285)">
      <g class="djs-visual">
        <text lineHeight="1.2" class="djs-label" style="font-family: Arial, sans-serif; font-size: 11px; font-weight: normal; fill: black;">
          <tspan x="0" y="9.899999999999999">azure vm </tspan>
          <tspan x="0.296875" y="23.099999999999998">deployed</tspan>
        </text>
      </g>
      <rect class="djs-hit djs-hit-all" x="0" y="0" width="46" height="27" style="fill: none; stroke-opacity: 0; stroke: white; stroke-width: 15px;"/>
      <rect x="-6" y="-6" width="58" height="39" class="djs-outline" style="fill: none;"/>
    </g>
  </g>
  <g class="djs-group">
    <g class="djs-element djs-shape" data-element-id="Flow_0870m3k_label" style="display: block;" transform="matrix(1 0 0 1 703 376)">
      <g class="djs-visual">
        <text lineHeight="1.2" class="djs-label" style="font-family: Arial, sans-serif; font-size: 11px; font-weight: normal; fill: black;">
          <tspan x="0" y="9.899999999999999">deploy my own </tspan>
          <tspan x="13.140625" y="23.099999999999998">appliance</tspan>
        </text>
      </g>
      <rect class="djs-hit djs-hit-all" x="0" y="0" width="74" height="27" style="fill: none; stroke-opacity: 0; stroke: white; stroke-width: 15px;"/>
      <rect x="-6" y="-6" width="86" height="39" class="djs-outline" style="fill: none;"/>
    </g>
  </g>
  <g class="djs-group">
    <g class="djs-element djs-shape" data-element-id="Gateway_1oriwa5_label" style="display: block;" transform="matrix(1 0 0 1 625 190)">
      <g class="djs-visual">
        <text lineHeight="1.2" class="djs-label" style="font-family: Arial, sans-serif; font-size: 11px; font-weight: normal; fill: black;">
          <tspan x="0" y="9.899999999999999">find out how this </tspan>
          <tspan x="9.2265625" y="23.099999999999998">can manage </tspan>
          <tspan x="18.09375" y="36.3">retention</tspan>
        </text>
      </g>
      <rect class="djs-hit djs-hit-all" x="0" y="0" width="79" height="40" style="fill: none; stroke-opacity: 0; stroke: white; stroke-width: 15px;"/>
      <rect x="-6" y="-6" width="91" height="52" class="djs-outline" style="fill: none;"/>
    </g>
  </g>
  <g class="djs-group">
    <g class="djs-element djs-shape" data-element-id="Flow_04flslc_label" style="display: block;" transform="matrix(1 0 0 1 716 246)">
      <g class="djs-visual">
        <text lineHeight="1.2" class="djs-label" style="font-family: Arial, sans-serif; font-size: 11px; font-weight: normal; fill: black;">
          <tspan x="5.40625" y="9.899999999999999">test-drive with </tspan>
          <tspan x="0" y="23.099999999999998">demo appliance</tspan>
        </text>
      </g>
      <rect class="djs-hit djs-hit-all" x="0" y="0" width="78" height="27" style="fill: none; stroke-opacity: 0; stroke: white; stroke-width: 15px;"/>
      <rect x="-6" y="-6" width="90" height="39" class="djs-outline" style="fill: none;"/>
    </g>
  </g>
</svg>